<svg width="17" height="18" viewBox="0 0 17 18" fill="none" xmlns="http://www.w3.org/2000/svg">
<path d="M16.2503 2.16958L9.53793 12.043C9.45838 12.16 9.34474 12.2497 9.21244 12.2998C9.04465 12.3635 8.85865 12.3592 8.69399 12.2878L8.63323 12.2615C8.57387 12.2357 8.51764 12.2033 8.46561 12.1649L7.1576 11.1981C7.07481 11.1369 7.00206 11.0632 6.94196 10.9796C6.71416 10.6628 6.69336 10.2419 6.88881 9.90416L6.96212 9.7775C7.00899 9.69651 7.06504 9.6212 7.12916 9.55305L14.8955 1.29845C14.9874 1.20079 15.0956 1.11989 15.2153 1.05937L15.4793 0.925845C15.6836 0.822533 15.9274 0.835955 16.1192 0.961062C16.3006 1.07946 16.41 1.28146 16.41 1.4981V1.65065C16.41 1.83573 16.3543 2.01652 16.2503 2.16958Z" fill="#818181"/>
<path d="M9.53793 12.043L9.66198 12.1273H9.66198L9.53793 12.043ZM16.2503 2.16958L16.1262 2.08524L16.2503 2.16958ZM15.4793 0.925845L15.547 1.0597V1.0597L15.4793 0.925845ZM15.2153 1.05937L15.283 1.19323V1.19323L15.2153 1.05937ZM14.8955 1.29845L14.7863 1.19567L14.7863 1.19567L14.8955 1.29845ZM7.12916 9.55305L7.23841 9.65583H7.23841L7.12916 9.55305ZM6.96212 9.7775L7.09194 9.85264L7.09194 9.85264L6.96212 9.7775ZM6.88881 9.90416L7.01864 9.97929H7.01864L6.88881 9.90416ZM7.1576 11.1981L7.24676 11.0775L7.24676 11.0775L7.1576 11.1981ZM8.46561 12.1649L8.37646 12.2855L8.37646 12.2855L8.46561 12.1649ZM8.63323 12.2615L8.69288 12.1238H8.69288L8.63323 12.2615ZM8.69399 12.2878L8.75365 12.1502H8.75364L8.69399 12.2878ZM9.21244 12.2998L9.26564 12.4401H9.26564L9.21244 12.2998ZM6.94196 10.9796L6.82017 11.0672H6.82017L6.94196 10.9796ZM16.1192 0.961062L16.2011 0.835443L16.2011 0.835443L16.1192 0.961062ZM9.66198 12.1273L16.3743 2.25391L16.1262 2.08524L9.41388 11.9586L9.66198 12.1273ZM16.56 1.65065V1.4981H16.26V1.65065H16.56ZM15.4116 0.791989L15.1476 0.925518L15.283 1.19323L15.547 1.0597L15.4116 0.791989ZM14.7863 1.19567L7.01991 9.45026L7.23841 9.65583L15.0048 1.40124L14.7863 1.19567ZM6.83229 9.70236L6.75899 9.82902L7.01864 9.97929L7.09194 9.85264L6.83229 9.70236ZM7.06844 11.3187L8.37646 12.2855L8.55477 12.0442L7.24676 11.0775L7.06844 11.3187ZM8.57357 12.3991L8.63434 12.4254L8.75364 12.1502L8.69288 12.1238L8.57357 12.3991ZM8.63434 12.4254C8.83483 12.5123 9.06133 12.5176 9.26564 12.4401L9.15925 12.1596C9.02798 12.2094 8.88246 12.206 8.75365 12.1502L8.63434 12.4254ZM8.37646 12.2855C8.43764 12.3307 8.50377 12.3688 8.57357 12.3991L8.69288 12.1238C8.64397 12.1026 8.59764 12.0759 8.55477 12.0442L8.37646 12.2855ZM6.82017 11.0672C6.88937 11.1634 6.97313 11.2483 7.06844 11.3187L7.24676 11.0775C7.1765 11.0255 7.11475 10.963 7.06374 10.892L6.82017 11.0672ZM6.75899 9.82902C6.53397 10.2178 6.55791 10.7025 6.82017 11.0672L7.06374 10.892C6.87041 10.6232 6.85276 10.2659 7.01864 9.97929L6.75899 9.82902ZM7.01991 9.45026C6.94789 9.52681 6.88494 9.6114 6.83229 9.70236L7.09194 9.85264C7.13304 9.78163 7.18219 9.71559 7.23841 9.65583L7.01991 9.45026ZM15.1476 0.925518C15.0124 0.993898 14.8901 1.08532 14.7863 1.19567L15.0048 1.40124C15.0847 1.31627 15.1788 1.24588 15.283 1.19323L15.1476 0.925518ZM16.2011 0.835443C15.9646 0.681073 15.6637 0.664512 15.4116 0.791989L15.547 1.0597C15.7035 0.980555 15.8903 0.990837 16.0372 1.08668L16.2011 0.835443ZM16.56 1.4981C16.56 1.23078 16.425 0.981535 16.2011 0.835443L16.0372 1.08668C16.1762 1.17738 16.26 1.33213 16.26 1.4981H16.56ZM16.3743 2.25391C16.4953 2.07598 16.56 1.8658 16.56 1.65065H16.26C16.26 1.80565 16.2134 1.95706 16.1262 2.08524L16.3743 2.25391ZM9.41388 11.9586C9.35165 12.0502 9.26274 12.1203 9.15925 12.1596L9.26564 12.4401C9.42673 12.379 9.56511 12.2698 9.66198 12.1273L9.41388 11.9586Z" fill="black"/>
<path d="M4.07765 17.2265L3.03118 17.3734H1.8348C1.37 17.2084 1.27452 16.5932 1.66746 16.2951L1.69538 16.2739C1.72498 16.2514 1.75257 16.2264 1.77783 16.1992L2.59444 15.3182L3.2401 14.3962L3.6199 13.7048L3.94273 13.0133L4.15277 12.5035C4.32102 12.095 4.65706 11.7789 5.07499 11.6358C5.44548 11.509 5.85043 11.5285 6.20699 11.6904L6.33 11.7463C6.49732 11.8223 6.65257 11.9224 6.79076 12.0436L7.07822 12.2956C7.3153 12.5034 7.51189 12.7532 7.65809 13.0326L7.74988 13.2079C7.88109 13.4586 7.94963 13.7374 7.94963 14.0203C7.94963 14.4249 7.80958 14.817 7.55327 15.1301L7.16772 15.601C7.0184 15.7833 6.85083 15.95 6.6676 16.0982L6.58075 16.1685C6.19202 16.483 5.75405 16.7313 5.28448 16.9032L5.10138 16.9702C4.77013 17.0915 4.42697 17.1774 4.07765 17.2265Z" fill="#818181"/>
<path d="M1.73987 17.3734H1.8348M1.8348 17.3734H3.03118L4.07765 17.2265C4.42697 17.1774 4.77013 17.0915 5.10138 16.9702L5.28448 16.9032C5.75405 16.7313 6.19202 16.483 6.58075 16.1685L6.6676 16.0982C6.85083 15.95 7.0184 15.7833 7.16772 15.601L7.55327 15.1301C7.80958 14.817 7.94963 14.4249 7.94963 14.0203V14.0203C7.94963 13.7374 7.88109 13.4586 7.74988 13.2079L7.65809 13.0326C7.51189 12.7532 7.3153 12.5034 7.07822 12.2956L6.79076 12.0436C6.65257 11.9224 6.49733 11.8223 6.33 11.7463L6.20699 11.6904C5.85043 11.5285 5.44548 11.509 5.07499 11.6358V11.6358C4.65706 11.7789 4.32102 12.095 4.15277 12.5035L3.94273 13.0133L3.6199 13.7048L3.2401 14.3962L2.59444 15.3182L1.77783 16.1992C1.75257 16.2264 1.72498 16.2514 1.69538 16.2739L1.66746 16.2951C1.27452 16.5932 1.37 17.2084 1.8348 17.3734V17.3734Z" stroke="black" stroke-width="0.3" stroke-linecap="round"/>
</svg>
