<svg width="15" height="18" viewBox="0 0 15 18" fill="none" xmlns="http://www.w3.org/2000/svg">
<path d="M0.823774 17.1124C0.83709 17.0624 0.851879 17.0074 0.868059 16.9477C0.950139 16.6448 1.06796 16.2227 1.2109 15.7459C1.49734 14.7905 1.88254 13.6226 2.28128 12.7544C2.34199 12.6222 2.42293 12.4536 2.48901 12.3174C2.52198 12.2494 2.55113 12.1897 2.57204 12.1471L2.59665 12.097L2.5977 12.0948L12.1941 0.577124C12.1964 0.576532 12.1988 0.575923 12.2012 0.575301C12.2333 0.567202 12.2781 0.556848 12.3286 0.547833C12.4355 0.52878 12.5466 0.519837 12.6204 0.535723C12.6758 0.547641 12.752 0.582426 12.8225 0.62094C12.856 0.639187 12.8851 0.656546 12.9058 0.669314C12.914 0.674404 12.9208 0.678724 12.926 0.682032L14.5715 2.29269C14.5738 2.29862 14.5764 2.30541 14.5793 2.31295C14.591 2.34395 14.6067 2.38741 14.6226 2.43703C14.6558 2.53984 14.6857 2.65582 14.6902 2.74157C14.6969 2.86781 14.6541 3.03896 14.6015 3.19144C14.5762 3.26497 14.5503 3.3294 14.5307 3.37541C14.5209 3.39836 14.5128 3.41657 14.5072 3.42887L14.5066 3.43009L5.26495 14.3612L5.26204 14.3635L5.22276 14.395C5.18932 14.4217 5.14254 14.459 5.0892 14.5013C4.98229 14.5861 4.84983 14.6903 4.74558 14.7696C3.98807 15.3462 2.93552 15.9687 2.06783 16.4491C1.63489 16.6888 1.24964 16.8922 0.97267 17.0356C0.918783 17.0635 0.869001 17.0892 0.823774 17.1124Z" fill="#818181" stroke="black" stroke-width="0.3" stroke-linecap="round" stroke-linejoin="round"/>
<path d="M12.7463 5.60319L9.99081 3.11011" stroke="black" stroke-width="0.3"/>
</svg>
