<svg width="18" height="18" viewBox="0 0 18 18" fill="none" xmlns="http://www.w3.org/2000/svg">
<path d="M3.49198 11.873L3.47701 11.8748C3.28156 11.8988 3.08399 11.9002 2.88821 11.8791L2.81744 11.8714C2.19293 11.8039 1.61992 11.4938 1.22186 11.0079L1.20129 10.9751C0.947186 10.5693 0.7911 10.1099 0.745404 9.63327C0.723947 9.40948 0.727037 9.18401 0.754621 8.96089C0.79455 8.63791 0.885375 8.32329 1.02372 8.02873L1.03235 8.01036C1.15808 7.74265 1.32022 7.4936 1.51415 7.27028L1.89496 6.83177L2.35604 6.16738C2.38099 6.13143 2.40208 6.09295 2.41896 6.05258L2.71662 5.34099C2.78968 5.16633 3.03015 5.14858 3.12807 5.31062L3.4181 5.81624L3.54282 6.03192C3.76404 6.41444 4.03498 6.76595 4.34858 7.07726L4.46104 7.1889L4.86774 7.5121C5.00059 7.61768 5.12131 7.73769 5.22767 7.86992C5.46396 8.16367 5.62413 8.51118 5.69399 8.88165L5.71906 9.01457C5.76202 9.24239 5.77102 9.47531 5.74575 9.70577L5.74303 9.73057C5.69803 10.141 5.5414 10.5313 5.29018 10.8589C5.21416 10.9581 5.13005 11.0508 5.03871 11.136L5.00551 11.167C4.58829 11.5564 4.05842 11.8035 3.49198 11.873Z" fill="#818181"/>
<path d="M3.47701 11.8748L3.45876 11.726H3.45875L3.47701 11.8748ZM3.49198 11.873L3.51023 12.0219H3.51024L3.49198 11.873ZM5.00551 11.167L4.90317 11.0573L5.00551 11.167ZM5.03871 11.136L5.14106 11.2457L5.14106 11.2457L5.03871 11.136ZM5.74303 9.73057L5.59392 9.71422V9.71422L5.74303 9.73057ZM5.74575 9.70577L5.89485 9.72212V9.72212L5.74575 9.70577ZM5.71906 9.01457L5.86646 8.98677L5.71906 9.01457ZM5.69399 8.88165L5.54659 8.90944V8.90944L5.69399 8.88165ZM4.86774 7.5121L4.96107 7.39467L4.96106 7.39467L4.86774 7.5121ZM4.46104 7.1889L4.35536 7.29535L4.36124 7.30118L4.36772 7.30633L4.46104 7.1889ZM4.34858 7.07726L4.45426 6.9708H4.45426L4.34858 7.07726ZM3.54282 6.03192L3.67267 5.95682L3.54282 6.03192ZM3.4181 5.81624L3.28798 5.89088L3.28825 5.89134L3.4181 5.81624ZM3.12807 5.31062L3.25821 5.23596L3.25645 5.23304L3.12807 5.31062ZM2.71662 5.34099L2.57824 5.28311V5.28311L2.71662 5.34099ZM2.41896 6.05258L2.28058 5.9947L2.28058 5.9947L2.41896 6.05258ZM2.35604 6.16738L2.23281 6.08185L2.23281 6.08185L2.35604 6.16738ZM1.89496 6.83177L2.00821 6.93012L2.01355 6.92398L2.01819 6.91729L1.89496 6.83177ZM1.51415 7.27028L1.40089 7.17193L1.51415 7.27028ZM1.03235 8.01036L1.16812 8.07413L1.16812 8.07412L1.03235 8.01036ZM1.02372 8.02873L0.887951 7.96496L0.887951 7.96496L1.02372 8.02873ZM1.20129 10.9751L1.32842 10.8955L1.32842 10.8955L1.20129 10.9751ZM1.22186 11.0079L1.09472 11.0875L1.09978 11.0956L1.10582 11.103L1.22186 11.0079ZM2.81744 11.8714L2.80132 12.0206L2.81744 11.8714ZM2.88821 11.8791L2.8721 12.0282H2.8721L2.88821 11.8791ZM0.745404 9.63327L0.596088 9.64759L0.745404 9.63327ZM0.754621 8.96089L0.605754 8.94249L0.754621 8.96089ZM5.22767 7.86992L5.11079 7.96393V7.96393L5.22767 7.86992ZM5.29018 10.8589L5.17114 10.7677V10.7677L5.29018 10.8589ZM3.49527 12.0237L3.51023 12.0219L3.47372 11.7241L3.45876 11.726L3.49527 12.0237ZM5.10786 11.2767L5.14106 11.2457L4.93637 11.0264L4.90317 11.0573L5.10786 11.2767ZM5.89214 9.74692L5.89485 9.72212L5.59664 9.68942L5.59392 9.71422L5.89214 9.74692ZM5.86646 8.98677L5.84139 8.85385L5.54659 8.90944L5.57166 9.04236L5.86646 8.98677ZM4.96106 7.39467L4.55437 7.07146L4.36772 7.30633L4.77442 7.62953L4.96106 7.39467ZM4.56672 7.08244L4.45426 6.9708L4.2429 7.18371L4.35536 7.29535L4.56672 7.08244ZM3.67267 5.95682L3.54795 5.74115L3.28825 5.89134L3.41297 6.10701L3.67267 5.95682ZM3.54821 5.74161L3.25818 5.23598L2.99795 5.38525L3.28798 5.89088L3.54821 5.74161ZM2.57824 5.28311L2.28058 5.9947L2.55734 6.11047L2.855 5.39888L2.57824 5.28311ZM2.23281 6.08185L1.77173 6.74625L2.01819 6.91729L2.47927 6.2529L2.23281 6.08185ZM1.7817 6.73342L1.40089 7.17193L1.6274 7.36864L2.00821 6.93012L1.7817 6.73342ZM0.896579 7.94659L0.887951 7.96496L1.15949 8.09249L1.16812 8.07413L0.896579 7.94659ZM1.07415 11.0547L1.09472 11.0875L1.34899 10.9283L1.32842 10.8955L1.07415 11.0547ZM2.80132 12.0206L2.8721 12.0282L2.90433 11.7299L2.83355 11.7223L2.80132 12.0206ZM1.10582 11.103C1.52881 11.6193 2.13771 11.9488 2.80132 12.0206L2.83355 11.7223C2.24815 11.659 1.71103 11.3684 1.33789 10.9129L1.10582 11.103ZM0.596088 9.64759C0.644008 10.1474 0.807689 10.6291 1.07415 11.0547L1.32842 10.8955C1.08668 10.5094 0.938191 10.0724 0.894719 9.61895L0.596088 9.64759ZM0.605754 8.94249C0.576828 9.17646 0.573588 9.41291 0.596088 9.64759L0.894719 9.61895C0.874306 9.40605 0.877246 9.19155 0.903487 8.9793L0.605754 8.94249ZM0.887951 7.96496C0.742871 8.27386 0.647626 8.60379 0.605754 8.94249L0.903487 8.9793C0.941473 8.67203 1.02788 8.37273 1.15949 8.09249L0.887951 7.96496ZM4.45426 6.9708C4.15007 6.66883 3.88725 6.32787 3.67267 5.95682L3.41297 6.10701C3.64082 6.50101 3.9199 6.86306 4.2429 7.18371L4.45426 6.9708ZM5.34455 7.7759C5.23123 7.63502 5.10261 7.50716 4.96107 7.39467L4.77442 7.62953C4.89857 7.7282 5.01139 7.84036 5.11079 7.96393L5.34455 7.7759ZM5.84139 8.85385C5.76696 8.45914 5.5963 8.08889 5.34455 7.7759L5.11079 7.96393C5.33161 8.23846 5.4813 8.56323 5.54659 8.90944L5.84139 8.85385ZM5.89485 9.72212C5.92174 9.47694 5.91217 9.22914 5.86646 8.98677L5.57166 9.04236C5.61188 9.25563 5.6203 9.47368 5.59664 9.68942L5.89485 9.72212ZM1.40089 7.17193C1.1979 7.40568 1.02819 7.66637 0.896579 7.94659L1.16812 8.07412C1.28798 7.81892 1.44254 7.58152 1.6274 7.36864L1.40089 7.17193ZM5.40922 10.9502C5.67712 10.6008 5.84414 10.1846 5.89214 9.74692L5.59392 9.71422C5.55191 10.0974 5.40568 10.4618 5.17114 10.7677L5.40922 10.9502ZM5.14106 11.2457C5.23846 11.1548 5.32815 11.0559 5.40922 10.9502L5.17114 10.7677C5.10017 10.8602 5.02164 10.9468 4.93637 11.0264L5.14106 11.2457ZM2.28058 5.9947C2.26776 6.02535 2.25175 6.05456 2.23281 6.08185L2.47927 6.2529C2.51022 6.20829 2.53639 6.16055 2.55734 6.11047L2.28058 5.9947ZM3.51024 12.0219C4.10815 11.9486 4.66746 11.6877 5.10786 11.2767L4.90317 11.0573C4.50913 11.4251 4.0087 11.6585 3.47372 11.7241L3.51024 12.0219ZM3.25645 5.23304C3.09505 4.96595 2.69867 4.99521 2.57824 5.28311L2.855 5.39888C2.88069 5.33746 2.96525 5.33122 2.99969 5.3882L3.25645 5.23304ZM3.45875 11.726C3.27471 11.7485 3.08868 11.7499 2.90433 11.7299L2.8721 12.0282C3.07931 12.0506 3.2884 12.0491 3.49527 12.0237L3.45875 11.726Z" fill="black"/>
<path d="M16.9868 2.26662L10.2744 12.14C10.1948 12.257 10.0812 12.3467 9.94891 12.3969C9.78112 12.4605 9.59512 12.4562 9.43046 12.3848L9.3697 12.3585C9.31034 12.3328 9.25411 12.3004 9.20208 12.2619L7.89407 11.2951C7.81128 11.2339 7.73853 11.1602 7.67843 11.0766C7.45063 10.7599 7.42983 10.3389 7.62528 10.0012L7.69859 9.87455C7.74546 9.79356 7.80151 9.71824 7.86563 9.65009L15.632 1.3955C15.7239 1.29784 15.8321 1.21694 15.9517 1.15642L16.2158 1.02289C16.42 0.919579 16.6639 0.933001 16.8556 1.05811C17.0371 1.1765 17.1464 1.3785 17.1464 1.59515V1.7477C17.1464 1.93277 17.0908 2.11357 16.9868 2.26662Z" fill="#818181"/>
<path d="M10.2744 12.14L10.3984 12.2243H10.3984L10.2744 12.14ZM16.9868 2.26662L16.8627 2.18229L16.9868 2.26662ZM16.2158 1.02289L16.2835 1.15675V1.15675L16.2158 1.02289ZM15.9517 1.15642L16.0194 1.29028V1.29028L15.9517 1.15642ZM15.632 1.3955L15.5227 1.29271L15.5227 1.29271L15.632 1.3955ZM7.86563 9.65009L7.97488 9.75288H7.97488L7.86563 9.65009ZM7.69859 9.87455L7.82841 9.94969L7.82841 9.94969L7.69859 9.87455ZM7.62528 10.0012L7.75511 10.0763H7.75511L7.62528 10.0012ZM7.89407 11.2951L7.98323 11.1745L7.98323 11.1745L7.89407 11.2951ZM9.20208 12.2619L9.11292 12.3825L9.11293 12.3825L9.20208 12.2619ZM9.3697 12.3585L9.42935 12.2209H9.42935L9.3697 12.3585ZM9.43046 12.3848L9.49011 12.2472H9.49011L9.43046 12.3848ZM9.94891 12.3969L10.0021 12.5371H10.0021L9.94891 12.3969ZM7.67843 11.0766L7.55664 11.1642H7.55664L7.67843 11.0766ZM16.8556 1.05811L16.9376 0.932489L16.9376 0.932489L16.8556 1.05811ZM10.3984 12.2243L17.1108 2.35096L16.8627 2.18229L10.1503 12.0557L10.3984 12.2243ZM17.2964 1.7477V1.59515H16.9964V1.7477H17.2964ZM16.1481 0.889035L15.884 1.02256L16.0194 1.29028L16.2835 1.15675L16.1481 0.889035ZM15.5227 1.29271L7.75638 9.54731L7.97488 9.75288L15.7412 1.49829L15.5227 1.29271ZM7.56876 9.79941L7.49546 9.92606L7.75511 10.0763L7.82841 9.94969L7.56876 9.79941ZM7.80491 11.4158L9.11292 12.3825L9.29124 12.1413L7.98323 11.1745L7.80491 11.4158ZM9.31004 12.4961L9.3708 12.5225L9.49011 12.2472L9.42935 12.2209L9.31004 12.4961ZM9.3708 12.5225C9.5713 12.6094 9.79779 12.6146 10.0021 12.5371L9.89572 12.2566C9.76445 12.3064 9.61893 12.303 9.49011 12.2472L9.3708 12.5225ZM9.11293 12.3825C9.17411 12.4278 9.24024 12.4659 9.31004 12.4961L9.42935 12.2209C9.38044 12.1997 9.33411 12.173 9.29124 12.1413L9.11293 12.3825ZM7.55664 11.1642C7.62584 11.2604 7.7096 11.3453 7.80491 11.4158L7.98323 11.1745C7.91297 11.1226 7.85122 11.06 7.80021 10.9891L7.55664 11.1642ZM7.49546 9.92606C7.27043 10.3149 7.29438 10.7995 7.55664 11.1642L7.80021 10.9891C7.60688 10.7202 7.58922 10.363 7.75511 10.0763L7.49546 9.92606ZM7.75638 9.54731C7.68436 9.62385 7.62141 9.70845 7.56876 9.79941L7.82841 9.94969C7.86951 9.87867 7.91866 9.81263 7.97488 9.75288L7.75638 9.54731ZM15.884 1.02256C15.7488 1.09094 15.6266 1.18236 15.5227 1.29271L15.7412 1.49829C15.8212 1.41332 15.9153 1.34293 16.0194 1.29028L15.884 1.02256ZM16.9376 0.932489C16.701 0.778119 16.4001 0.761557 16.1481 0.889035L16.2835 1.15675C16.44 1.0776 16.6268 1.08788 16.7737 1.18373L16.9376 0.932489ZM17.2964 1.59515C17.2964 1.32783 17.1615 1.07858 16.9376 0.932489L16.7736 1.18373C16.9126 1.27443 16.9964 1.42918 16.9964 1.59515H17.2964ZM17.1108 2.35096C17.2318 2.17303 17.2964 1.96285 17.2964 1.7477H16.9964C16.9964 1.90269 16.9498 2.05411 16.8627 2.18229L17.1108 2.35096ZM10.1503 12.0557C10.0881 12.1472 9.99921 12.2174 9.89571 12.2566L10.0021 12.5371C10.1632 12.476 10.3016 12.3668 10.3984 12.2243L10.1503 12.0557Z" fill="black"/>
<path d="M4.81435 17.3235L3.76788 17.4705H2.5715C2.10671 17.3055 2.01123 16.6902 2.40416 16.3922L2.43209 16.371C2.46169 16.3485 2.48928 16.3235 2.51453 16.2963L3.33114 15.4153L3.9768 14.4933L4.3566 13.8019L4.67944 13.1104L4.88947 12.6005C5.05773 12.1921 5.39377 11.876 5.81169 11.7329C6.18218 11.606 6.58714 11.6256 6.94369 11.7875L7.06671 11.8434C7.23403 11.9194 7.38927 12.0195 7.52746 12.1407L7.81493 12.3926C8.052 12.6005 8.2486 12.8503 8.3948 13.1296L8.48659 13.305C8.6178 13.5557 8.68634 13.8344 8.68634 14.1174C8.68634 14.522 8.54629 14.9141 8.28998 15.2271L7.90442 15.6981C7.75511 15.8804 7.58753 16.047 7.40431 16.1953L7.31746 16.2656C6.92872 16.5801 6.49075 16.8283 6.02119 17.0003L5.83809 17.0673C5.50684 17.1886 5.16368 17.2745 4.81435 17.3235Z" fill="#818181"/>
<path d="M2.47657 17.4705H2.5715M2.5715 17.4705H3.76788L4.81435 17.3235C5.16368 17.2745 5.50684 17.1886 5.83809 17.0673L6.02119 17.0003C6.49075 16.8283 6.92872 16.5801 7.31746 16.2656L7.40431 16.1953C7.58753 16.047 7.75511 15.8804 7.90442 15.6981L8.28998 15.2271C8.54629 14.9141 8.68634 14.522 8.68634 14.1174V14.1174C8.68634 13.8344 8.6178 13.5557 8.48659 13.305L8.3948 13.1296C8.2486 12.8503 8.052 12.6005 7.81493 12.3926L7.52746 12.1407C7.38927 12.0195 7.23403 11.9194 7.06671 11.8434L6.94369 11.7875C6.58714 11.6256 6.18218 11.606 5.81169 11.7329V11.7329C5.39377 11.876 5.05773 12.1921 4.88947 12.6005L4.67944 13.1104L4.3566 13.8019L3.9768 14.4933L3.33114 15.4153L2.51453 16.2963C2.48928 16.3235 2.46169 16.3485 2.43209 16.371L2.40416 16.3922C2.01123 16.6902 2.10671 17.3055 2.5715 17.4705V17.4705Z" stroke="black" stroke-width="0.3" stroke-linecap="round"/>
</svg>
