<svg width="17" height="17" viewBox="0 0 17 17" fill="none" xmlns="http://www.w3.org/2000/svg">
<path fill-rule="evenodd" clip-rule="evenodd" d="M16.4717 16.1457H0.238083V15.3615H16.4717V16.1457Z" fill="#818181" stroke="black" stroke-width="0.3"/>
<path d="M8.35471 0.181268L8.35095 0.331207C9.36525 0.356625 10.3761 0.813522 10.9541 1.62036L11.076 1.53301L10.9541 1.62037C11.6249 2.55692 11.6655 3.94414 11.1315 5.03897C11.0419 5.22258 10.978 5.30759 10.8694 5.45205C10.8494 5.47858 10.828 5.50711 10.8046 5.53862L10.925 5.62803L10.8046 5.53862C10.7785 5.57382 10.7514 5.61011 10.7236 5.64741C10.4672 5.9915 10.1463 6.42216 9.88087 6.88605C9.58774 7.39839 9.35088 7.97011 9.35088 8.52979C9.35088 9.03861 9.41031 9.56987 9.64677 9.96863C9.85771 10.3244 10.2079 10.5042 10.6123 10.5911C11.0137 10.6773 11.4876 10.6764 11.9742 10.6565C12.1309 10.6501 12.2887 10.6417 12.4469 10.6334C12.7873 10.6153 13.1295 10.5972 13.4662 10.5982C13.9574 10.5996 14.4169 10.6423 14.8075 10.78C15.6516 11.0774 16.0259 11.6734 16.1933 12.3887C16.3333 12.9869 16.3257 13.6534 16.3184 14.2906C16.3174 14.3795 16.3164 14.4678 16.3158 14.5554H0.396256C0.39547 14.4516 0.39403 14.3473 0.392585 14.2427C0.385801 13.7512 0.378925 13.2531 0.439374 12.781C0.518322 12.1645 0.709596 11.6231 1.1456 11.2352C1.76162 10.6871 2.63855 10.5867 3.5721 10.5999C3.85182 10.6039 4.12668 10.6175 4.39841 10.631C4.58239 10.6402 4.76493 10.6492 4.94656 10.6552C5.38708 10.6696 5.81074 10.6648 6.17434 10.5876C6.61209 10.4946 6.91521 10.2464 7.10403 9.89347C7.28927 9.54724 7.36122 9.1073 7.36122 8.62627C7.36122 8.11191 7.19342 7.60523 6.97443 7.15703C6.75497 6.70788 6.47961 6.30847 6.25484 6.00705C6.19351 5.9248 6.13507 5.84749 6.07946 5.77393C5.82136 5.43248 5.6241 5.17151 5.48059 4.87048C5.31015 4.51296 5.21467 4.09373 5.21467 3.41562C5.21467 2.34036 5.69558 1.43828 6.55855 0.866929L6.55855 0.866927C6.77104 0.726235 7.09351 0.587975 7.43194 0.486481C7.77095 0.384813 8.109 0.325141 8.35095 0.331207L8.35471 0.181268ZM8.35471 0.181268V0.181263V0.181268Z" fill="#818181" stroke="black" stroke-width="0.3"/>
</svg>
